<svg style="display: none;">
  <symbol
    id="close16"
    xmlns="http://www.w3.org/2000/svg"
    width="16"
    height="16"
  >
    <g>
      <path d="M2 3C7.84348 8.35652 12.4348 12.5652 14 14" stroke-width="4"/>
      <path d="M14 3C9.82609 7.2087 4.26087 12.087 2 14" stroke-width="4"/>
    </g>
  </symbol>

  <symbol
    id="angle16"
    xmlns="http://www.w3.org/2000/svg"
    width="16"
    height="16"
  >
    <g>
      <path d="M8 4L13.1962 10.75H2.80385L8 4Z" />
    </g>
  </symbol>

  <symbol
    id="search24"
    xmlns="http://www.w3.org/2000/svg"
    width="24"
    height="24"
  >
    <g>
      <circle cx="9" cy="9" r="7.5" stroke-width="3" />
      <line x1="13.985" y1="14.8687" x2="22.7561" y2="22.5058" stroke-width="3" />
    </g>
  </symbol>

  <symbol
    id="calendar24"
    xmlns="http://www.w3.org/2000/svg"
    width="24"
    height="24"
  >
    <g>
      <rect x="2.5" y="7.5" width="20" height="16" stroke-miterlimit="3.84243" stroke-linejoin="round" />
      <line x1="3" y1="11.5" x2="22" y2="11.5" />
      <line x1="3" y1="15.5" x2="22" y2="15.5" />
      <line x1="3" y1="19.5" x2="22" y2="19.5" />
      <line x1="7.5" y1="8" x2="7.5" y2="23" />
      <line x1="12.5" y1="8" x2="12.5" y2="23" />
      <line x1="17.5" y1="8" x2="17.5" y2="23" />
      <rect x="6.5" y="2.5" width="2" height="3" />
      <rect x="16.5" y="2.5" width="2" height="3" />
      <line x1="2" y1="6.5" x2="23" y2="6.5" />
      <rect x="2.5" y="4.5" width="3" height="1" />
      <rect x="9.5" y="4.5" width="6" height="1" />
      <rect x="19.5" y="4.5" width="3" height="1" />
    </g>
  </symbol>

  <symbol
    id="pencil24"
    xmlns="http://www.w3.org/2000/svg"
    width="24"
    height="24"
  >
    <g>
      <path d="M12.8992 5.55708C13.994 4.12483 14.0221 3.74789 15 3.99999C16.0583 4.27285 18.5 6 18.1954 7.12487L17 8.65" />
      <path d="M7.4571 18.8L4.57335 20.106L5.1865 17.0002L7.4571 18.8Z" stroke-width="2"/>
      <rect x="12.4394" y="6.08937" width="5.15314" height="11" transform="rotate(37.7734 12.4394 6.08937)" />
      <line x1="13.396" y1="7.30527" x2="6.90586" y2="15.7242" />
      <line x1="15.396" y1="8.30527" x2="8.90586" y2="16.7242" />
    </g>
  </symbol>

  <symbol
    id="gear24"
    xmlns="http://www.w3.org/2000/svg"
    width="24"
    height="24"
  >
    <g>
      <circle cx="12" cy="12" r="4.5" stroke-width="3"/>
      <path d="M11.1805 6L11.5138 4H12.4862L12.8195 6H11.1805Z" stroke-width="2"/>
      <path d="M16.7008 15.5418L17.8793 17.1917L17.1917 17.8793L15.5418 16.7008L16.7008 15.5418Z" stroke-width="2"/>
      <path d="M6.95603 8.11504L5.77752 6.46512L6.46512 5.77752L8.11504 6.95603L6.95603 8.11504Z" stroke-width="2"/>
      <path d="M8.11504 16.7008L6.46512 17.8793L5.77752 17.1917L6.95603 15.5418L8.11504 16.7008Z" stroke-width="2"/>
      <path d="M12.8195 18L12.4862 20H11.5138L11.1805 18H12.8195Z" stroke-width="2"/>
      <path d="M6 12.8195L4 12.4862V11.5138L6 11.1805V12.8195Z" stroke-width="2"/>
      <path d="M15.7134 6.95603L17.3633 5.77752L18.0509 6.46512L16.8724 8.11504L15.7134 6.95603Z" stroke-width="2"/>
      <path d="M18 11.1805L20 11.5138V12.4862L18 12.8195V11.1805Z" stroke-width="2"/>
    </g>
  </symbol>

  <symbol
    id="trash24"
    xmlns="http://www.w3.org/2000/svg"
    width="24"
    height="24"
  >
    <g>
      <path d="M4.5 6.5H19.5V21C19.5 21.8284 18.8284 22.5 18 22.5H6C5.17157 22.5 4.5 21.8284 4.5 21V6.5Z" stroke-width="3" stroke-linejoin="round"/>
      <line x1="9" y1="8" x2="9" y2="21" stroke-width="2"/>
      <line x1="15" y1="8" x2="15" y2="21" stroke-width="2"/>
      <line x1="1" y1="5" x2="23" y2="5" stroke-width="2"/>
      <path d="M6.00003 4C6 1 8.00001 1 8.00001 1H16C17.5 1 18 2.5 18 4" stroke-width="2"/>
    </g>
  </symbol>

  <symbol
    id="close24"
    xmlns="http://www.w3.org/2000/svg"
    width="24"
    height="24"
  >
    <g>
      <line x1="2.82843" y1="3" x2="21" y2="21.1716" stroke-width="4" stroke-linecap="round"/>
      <line x1="21" y1="2.82843" x2="2.82843" y2="21" stroke-width="4" stroke-linecap="round"/>
    </g>
  </symbol>
</svg>
